PathFileType	4	(X/Y/Z)	T1_P1_Vision_Movement_3_0-659.trc
DataRate	CameraRate	NumFrames	NumMarkers	Units	OrigDataRate	OrigDataStartFrame	OrigNumFrames
60	60	7	27	m	60	411	659
Frame#	Time	RHip			RKnee			RAnkle			RBigToe			RSmallToe			RHeel			LHip			LKnee			LAnkle			LBigToe			LSmallToe			LHeel			Neck			Head			Nose			RShoulder			RElbow			RWrist			RThumb			RIndex			RPinky			LShoulder			LElbow			LWrist			LThumb			LIndex			LPinky		
		X1	Y1	Z1	X2	Y2	Z2	X3	Y3	Z3	X4	Y4	Z4	X5	Y5	Z5	X6	Y6	Z6	X7	Y7	Z7	X8	Y8	Z8	X9	Y9	Z9	X10	Y10	Z10	X11	Y11	Z11	X12	Y12	Z12	X13	Y13	Z13	X14	Y14	Z14	X15	Y15	Z15	X16	Y16	Z16	X17	Y17	Z17	X18	Y18	Z18	X19	Y19	Z19	X20	Y20	Z20	X21	Y21	Z21	X22	Y22	Z22	X23	Y23	Z23	X24	Y24	Z24	X25	Y25	Z25	X26	Y26	Z26	X27	Y27	Z27
412	6.866666666666666	-106.20198294534228	3872.5652051342004	-634.4342613822467	246.64983885661877	4080.2807642663547	-663.6898872842731	599.0360605932628	4263.9545707525085	-684.5703422472269	684.2095395397739	4172.369325223476	-643.5774268036957	674.3764434639096	4137.7317561249865	-683.591380311841	638.3361032405812	4315.513436288514	-698.6990078362967	-128.64834682649146	4050.202031003613	-502.06578408318103	215.99472878112056	4165.066928987936	-503.0499100178385	559.8321554871898	4334.137748804637	-514.1157277115221	642.5050828040938	4238.846224167291	-416.0270344440697	609.6493852414459	4278.13503441608	-378.87399805562586	606.2091139277511	4373.843912136487	-538.1387151858378	-714.9020787734719	3813.3274958700663	-589.8522992820389	-948.6306118043227	3675.8711084368965	-483.63263163838843	-805.2684685005229	3690.221653789258	-461.32367423823865	-593.8313556932284	3726.2889482781757	-703.2691284790483	-422.7315435869834	3637.7516772344675	-782.7273073493279	-589.7704664523654	3507.05494434838	-709.817486501584	-667.0954569749977	3462.0063613184034	-657.8299627002174	-670.2999892845662	3458.5294803200277	-679.1870476866908	-651.3571113933745	3411.236319390995	-673.0180568172617	-644.0584686657062	3939.7838045120766	-461.4733337367856	-402.5665069550379	4092.6230203626956	-428.917489171576	-157.32521684947758	4094.685479540466	-365.7900261061304	-28.81686482212524	4079.785237939622	-365.3900425732644	5.060704781427989	4136.184322180439	-357.74747082622014	-16.164563838872493	4154.616566661974	-335.20016087475074
413	6.883333333333334	-111.74557159115491	3871.9985224446827	-634.7650106853888	246.7718929586927	4080.37699459976	-664.0244175793591	605.0925760657229	4263.515523122517	-683.970976184043	695.3275358199072	4204.406454464641	-650.9599575597255	680.029221936828	4160.579374795233	-700.3169193694949	645.3633617044134	4318.537592582094	-698.1210178222088	-139.6675628001031	4045.4696569407565	-500.70478467458844	210.88650869699316	4165.284390088796	-503.95620414620464	567.8387646769227	4339.083287703048	-516.3679951013122	637.3620838029898	4215.0856684759265	-400.5583134171788	612.0696007280333	4250.393942749448	-374.8134866843106	606.7212856156607	4374.022157796135	-538.4673854845505	-715.3131762550325	3814.0653591837413	-584.2210468760123	-948.4268290739634	3675.652598905975	-483.45895096379655	-800.1300469050299	3691.7917891305706	-461.3901550319582	-594.1113354648198	3726.7452607651194	-703.4378236907661	-422.83974355350904	3637.5330781643556	-782.5324745374758	-589.3109984119294	3505.868506594197	-709.1468508652184	-670.8851374031083	3484.6759098711154	-663.9882800237422	-670.4936522960043	3458.5976037842943	-674.230644641978	-651.2717002594212	3411.183025543763	-672.8554023141644	-639.6457699947028	3912.62889137347	-461.58019571018997	-408.0287976949902	4091.4677208635253	-429.0542593707252	-151.3149861072758	4099.295543747543	-367.6291273976533	-28.685805488540904	4080.450670768918	-365.63328150185396	11.06768196560328	4140.976130772213	-359.70479269256344	-20.696307581618246	4154.599719406278	-335.7890609568907
414	6.9	-110.82006503429956	3868.636992249137	-638.8570049247504	246.68736380785938	4080.266992562552	-663.8874243036088	599.3775384061045	4264.326643859786	-684.6993684862535	689.4366456616029	4205.160320491581	-651.7084261752748	680.0136678660967	4160.934219115437	-700.4803132499651	645.3798410164659	4319.127857260157	-698.207914288431	-134.6119688533047	4046.038417114016	-500.4679789521596	210.83123499609488	4165.367277164631	-504.0009135809241	559.9705092276928	4334.451668105528	-514.3041064089821	637.5958948091176	4215.624192041265	-401.1185379632609	616.5712146378975	4282.940215436807	-381.02569621670875	606.4192424272459	4374.337492669721	-538.5071621170415	-715.3090322907386	3814.1853366153655	-584.2428305328029	-948.4832485625288	3675.880959081641	-483.4855799900714	-800.1205378356663	3691.9644547238972	-461.3769532702511	-594.107550913017	3726.7569337920418	-703.4521262139197	-422.75817088944046	3637.66171981653	-782.627657496635	-585.0201936395641	3508.479621359603	-710.2237001744782	-668.6255096401678	3470.0761823203347	-651.1894151759162	-670.3991798910185	3458.614370470317	-674.2856948646869	-651.1670595266878	3411.0301218909235	-672.8735490778522	-639.5925305038281	3912.6592692966547	-461.53467709913036	-402.6033505386469	4092.6941439524435	-428.9915216883801	-157.27469549002842	4095.0271787075244	-365.9918970332615	-28.90227827649511	4078.9919149521006	-365.3385426685793	5.129639941534952	4135.316739953678	-357.8205885621929	-20.864771342879536	4154.459266601387	-335.8774836663255
415	6.916666666666667	-105.3910801167536	3870.459912744781	-638.1479706557806	243.89548240316202	4058.393449630606	-647.6812327582136	599.176761450487	4264.102318874606	-684.676344576351	689.2952920416667	4205.1411143064615	-651.6404739484946	674.5117317235604	4138.451594467887	-683.9286649941187	632.2678437943644	4311.593676843626	-696.8117779749055	-134.6515448104387	4045.943471838048	-500.3468426531348	215.8572018687856	4165.874140974112	-503.58646994582836	553.521323893755	4331.07660799722	-515.3194711584558	637.4282866417251	4215.71381348359	-401.14014297315606	609.7846851227202	4278.555823076485	-379.0330711216372	606.4782690267266	4374.667042913216	-539.099755036428	-715.2948411013193	3814.156262187701	-584.2557780413059	-948.4122932649149	3675.575892694227	-483.30146453036343	-804.7515951474809	3691.922046326675	-456.00936107646044	-594.0700924600088	3726.6529804318657	-703.3770269674095	-422.8491781271271	3637.4988237667776	-782.5061427501022	-585.1129170489928	3508.561264222018	-710.3040421245056	-664.6950553145484	3447.6324162837886	-644.5281368147378	-666.5501479474735	3459.6700037316023	-674.5001154492443	-651.1985794282386	3411.040372164347	-672.7175641701441	-639.647944516546	3912.6524038726443	-461.59062395371495	-408.1359375856679	4091.630782576314	-429.1481332067468	-157.40463964734	4094.8178937964854	-365.9312062899126	-29.220319542506793	4078.624569716353	-365.0699682078388	-0.23288679855702718	4132.441674996826	-357.9704099291192	-16.498549157392176	4155.282809971608	-335.79748824729967
416	6.933333333333334	-111.5651499696932	3868.1657581596933	-632.2538345491001	243.83422102942518	4058.082235518167	-647.5771729558168	600.9438545910996	4266.522596854639	-692.3097677236901	684.1332538466531	4171.984765174247	-643.3487002533276	679.8348328237108	4159.581407693963	-700.0922710599983	645.1975248379658	4318.946105674399	-698.3285770588554	-134.686330705269	4045.8764074352202	-500.3371210047918	215.83277697358062	4165.326704024844	-503.2505918387215	559.688616483336	4334.330164805802	-514.4360473860448	637.460138730585	4215.584605130989	-400.90201277452104	616.5959102352854	4283.748468049243	-381.03383813262496	606.7838824138473	4374.614164111715	-538.8319918523952	-710.1066789998996	3816.97145111452	-591.1097648467593	-948.3889176896377	3675.9860636597427	-483.4273110797462	-804.6459518029374	3692.087120386366	-456.02513691457824	-593.9638776418413	3726.5609728653258	-703.3491290945109	-422.750656951903	3637.4630276923826	-782.3453259458398	-589.2929615062804	3506.030456407841	-709.1240085697038	-666.7804144301305	3461.805103031958	-657.3249953336071	-666.4486321749748	3459.240604053437	-674.409355097692	-651.0936914536035	3385.68856315068	-664.5674281218438	-639.6248933160847	3912.6399509784005	-461.5593109047888	-402.58381985932533	4092.630338361542	-428.930220752983	-157.1972213012687	4095.0863920418205	-366.07845543674114	-33.770003079516165	4104.55876338411	-370.36492445657785	5.820084975372655	4138.074078921053	-360.02280252398407	-16.418048238399347	4155.840653323409	-336.01914718158787
417	6.95	-117.18484362452057	3865.557160984355	-632.5846469748857	244.61405376875052	4048.3528319044335	-655.4665068847028	593.1288912122917	4259.5666009595125	-682.1941951021649	683.9756998952442	4171.818256660252	-643.337792753952	679.8210127581642	4160.610489592436	-700.5216860183165	638.8166702011421	4314.520632650451	-695.9542430810309	-134.77509233651048	4045.439127220655	-500.2383195590395	210.56988426065087	4164.718120536042	-503.68504977403853	553.5294687487964	4330.587140992296	-515.146497280826	637.4291179862342	4215.780024544871	-400.8523324055908	616.4212879367103	4283.198724121789	-380.9777330073853	606.5901224464618	4374.223810267654	-538.9489584622003	-710.124567785873	3816.748342912846	-591.0142464628794	-948.4384296936983	3675.9493015174585	-483.36400524140953	-800.4582041041152	3693.1511755786723	-455.6460418900307	-593.9950782891731	3726.5491920839827	-703.3616140619533	-423.1854326418284	3637.7219725508085	-777.0480030420749	-585.1182676642454	3508.9810683963565	-710.5466963742545	-664.6853305804584	3447.705966157051	-644.6327943223641	-666.5155057334094	3459.6358114032396	-674.4255205872422	-651.2108505781331	3411.1719379383844	-672.7711464564134	-639.6426942406638	3912.367409109988	-461.518908984184	-402.58755706767397	4092.536956459883	-428.88204527333073	-157.24964021172224	4095.138458751451	-365.96491849986444	-28.86497606283331	4107.698963119457	-370.3546481325782	11.181076542788979	4141.211855588121	-359.77308389962417	-16.225872032869862	4155.404670378091	-335.6302729175059
418	6.966666666666667	-111.49295277383422	3868.304356450902	-632.4380813548967	243.79361943391044	4057.916232842305	-647.6000325299236	601.1691405880107	4267.94334425867	-692.6300467330052	684.2366533544695	4172.26381043631	-643.3279243968507	674.733717760603	4138.842239484266	-683.8962215182983	644.4657979607179	4348.361325267479	-704.8929243810115	-134.68030551081202	4045.729910811329	-500.2948642714525	215.74366465339867	4164.735903855859	-503.306990248261	559.817632024464	4334.3405856554655	-514.6448832837011	637.2288752325833	4214.923311923217	-400.75264894043625	612.1384072379409	4250.522809596132	-374.987212524319	606.1949787127774	4374.442237307027	-538.9049881426683	-705.505241361472	3790.5175172594636	-584.5027770050059	-954.1348833873609	3700.2298570553585	-488.9862341026663	-805.4293127901221	3718.41199240151	-461.45005237967416	-594.0471942944647	3726.555935668919	-703.4025595032996	-422.70215731585904	3637.5193349250003	-782.3582807796347	-579.8171925932062	3510.0848916502764	-709.945894683531	-666.8426970263198	3462.2090604073505	-657.4753116169971	-666.5287900023538	3459.939838483329	-674.6311208418592	-651.2067604368937	3411.306344338927	-672.9948043033966	-639.5676858926942	3912.155589794812	-461.48955939454316	-402.49060338419866	4092.4481020775384	-428.93678795366196	-157.18055560470464	4095.065735072974	-365.95332837501337	-28.838989536853358	4079.9092876392488	-365.19397190456795	11.146423968980683	4140.998492350824	-359.61409617722717	-16.061514142284388	4155.717413387443	-335.8048380364058
